<svg width="355" height="528" viewBox="0 0 355 528" fill="none" xmlns="http://www.w3.org/2000/svg">
<path d="M206.123 126.385C203.728 127.822 198.363 130.984 194.147 133.475C189.931 135.966 184.375 139.223 181.692 140.66C179.105 142.098 171.919 146.217 165.883 149.762C159.847 153.307 152.758 157.427 150.171 158.864C146.722 160.78 145.093 162.505 143.752 165.667C141.931 169.595 141.835 171.99 142.123 205.523C142.41 235.128 142.698 241.739 143.847 244.134C145.285 247.008 150.075 250.17 174.027 263.775C179.871 267.128 188.494 272.014 193.189 274.793C205.261 281.882 211.488 284.852 213.884 284.852C216.087 284.852 224.039 280.828 238.985 272.11C260.159 259.655 266.195 256.206 270.794 253.715C280.279 248.541 282.099 247.104 283.345 244.038C285.069 240.014 285.357 170.074 283.632 165.283C282.77 162.888 280.087 160.876 267.632 153.499C259.393 148.708 247.417 141.619 241.093 137.882C214.65 122.361 213.788 122.074 206.123 126.385ZM221.74 140.565C223.943 141.81 227.967 144.11 230.65 145.643C256.614 160.205 266.387 166.146 269.548 169.116L273.189 172.756V204.277V235.798L270.794 238.673C268.686 241.164 261.117 246.05 247.321 253.523C244.447 255.152 238.315 258.697 233.62 261.571C221.165 269.044 218.099 270.481 213.788 270.481C209.189 270.481 208.231 270.098 188.686 258.409C180.351 253.427 173.357 249.403 173.069 249.403C172.877 249.403 169.333 247.391 165.309 244.996C153.907 238.002 154.386 239.822 154.386 204.277C154.386 174.481 154.386 173.906 156.59 170.84C157.931 168.828 163.009 165.283 171.632 160.301C178.722 156.277 190.219 149.666 197.021 145.643C211.393 137.307 214.842 136.541 221.74 140.565Z" fill="#FCFCFC"/>
<path d="M210.914 144.301C209.572 144.972 203.632 148.421 197.692 151.966C191.752 155.511 186.77 158.385 186.578 158.385C185.812 158.385 163.392 171.798 161.86 173.14C160.327 174.577 160.135 177.259 160.135 204.373C160.135 237.906 159.656 235.703 167.991 239.918C172.111 242.026 180.446 246.721 201.524 259.08C207.656 262.721 213.213 265.691 213.788 265.691C214.458 265.691 220.59 262.337 227.584 258.218C234.482 254.098 246.075 247.295 253.261 243.08L266.483 235.511V204.373V173.235L263.8 171.702C262.363 170.84 253.932 165.954 244.926 160.78C218.195 145.259 214.363 143.056 213.788 143.056C213.5 143.056 212.255 143.631 210.914 144.301ZM220.686 151.295C224.039 153.307 230.65 157.044 235.345 159.822C240.135 162.601 246.554 166.241 249.716 167.966C252.878 169.69 257.093 172.181 259.105 173.427L262.65 175.631L262.459 204.565L262.171 233.499L251.632 239.727C231.225 251.607 220.973 257.547 217.333 259.463L213.788 261.379L207.752 258.026C204.494 256.301 198.171 252.565 193.668 249.882C189.165 247.2 182.554 243.271 178.818 241.259C175.177 239.247 170.482 236.565 168.566 235.319L164.925 233.116V204.277V175.535L167.895 173.906C170.578 172.469 187.824 162.409 205.644 151.966C209.381 149.762 212.83 148.038 213.5 147.942C214.075 147.846 217.333 149.379 220.686 151.295Z" fill="#FCFCFC"/>
<path d="M193.668 191.918V196.709H200.854H207.943L208.231 208.876L208.518 221.14H213.788H219.057L219.345 208.876L219.632 196.709H226.722H233.908V191.918V187.128H213.788H193.668V191.918Z" fill="#FCFCFC"/>
<path d="M279.123 248.385C276.728 249.822 271.363 252.984 267.147 255.475C262.931 257.966 257.375 261.223 254.692 262.66C252.105 264.098 244.919 268.217 238.883 271.762C232.847 275.307 225.758 279.427 223.171 280.864C219.722 282.78 218.093 284.505 216.752 287.667C214.931 291.595 214.835 293.99 215.123 327.523C215.41 357.128 215.698 363.739 216.847 366.134C218.285 369.008 223.075 372.17 247.027 385.775C252.871 389.128 261.494 394.014 266.189 396.793C278.261 403.882 284.488 406.852 286.884 406.852C289.087 406.852 297.039 402.828 311.985 394.11C333.159 381.655 339.195 378.206 343.794 375.715C353.279 370.541 355.099 369.104 356.345 366.038C358.069 362.014 358.357 292.074 356.632 287.283C355.77 284.888 353.087 282.876 340.632 275.499C332.393 270.708 320.417 263.619 314.093 259.882C287.65 244.361 286.788 244.074 279.123 248.385ZM294.74 262.565C296.943 263.81 300.967 266.11 303.65 267.643C329.614 282.205 339.387 288.146 342.548 291.116L346.189 294.756V326.277V357.798L343.794 360.673C341.686 363.164 334.117 368.05 320.321 375.523C317.447 377.152 311.315 380.697 306.62 383.571C294.165 391.044 291.099 392.481 286.788 392.481C282.189 392.481 281.231 392.098 261.686 380.409C253.351 375.427 246.357 371.403 246.069 371.403C245.877 371.403 242.333 369.391 238.309 366.996C226.907 360.002 227.386 361.822 227.386 326.277C227.386 296.481 227.386 295.906 229.59 292.84C230.931 290.828 236.009 287.283 244.632 282.301C251.722 278.277 263.219 271.666 270.021 267.643C284.393 259.307 287.842 258.541 294.74 262.565Z" fill="#FCFCFC"/>
<path d="M283.914 266.301C282.572 266.972 276.632 270.421 270.692 273.966C264.752 277.511 259.77 280.385 259.578 280.385C258.812 280.385 236.392 293.798 234.86 295.14C233.327 296.577 233.135 299.259 233.135 326.373C233.135 359.906 232.656 357.703 240.991 361.918C245.111 364.026 253.446 368.721 274.524 381.08C280.656 384.721 286.213 387.691 286.788 387.691C287.458 387.691 293.59 384.337 300.584 380.218C307.482 376.098 319.075 369.295 326.261 365.08L339.483 357.511V326.373V295.235L336.8 293.702C335.363 292.84 326.932 287.954 317.926 282.78C291.195 267.259 287.363 265.056 286.788 265.056C286.5 265.056 285.255 265.631 283.914 266.301ZM293.686 273.295C297.039 275.307 303.65 279.044 308.345 281.822C313.135 284.601 319.554 288.241 322.716 289.966C325.878 291.69 330.093 294.181 332.105 295.427L335.65 297.631L335.459 326.565L335.171 355.499L324.632 361.727C304.225 373.607 293.973 379.547 290.333 381.463L286.788 383.379L280.752 380.026C277.494 378.301 271.171 374.565 266.668 371.882C262.165 369.2 255.554 365.271 251.818 363.259C248.177 361.247 243.482 358.565 241.566 357.319L237.925 355.116V326.277V297.535L240.895 295.906C243.578 294.469 260.824 284.409 278.644 273.966C282.381 271.762 285.83 270.038 286.5 269.942C287.075 269.846 290.333 271.379 293.686 273.295Z" fill="#FCFCFC"/>
<path d="M266.668 313.918V318.709H273.854H280.943L281.231 330.876L281.518 343.14H286.788H292.057L292.345 330.876L292.632 318.709H299.722H306.908V313.918V309.128H286.788H266.668V313.918Z" fill="#FCFCFC"/>
<path d="M276.123 2.38498C273.728 3.8221 268.363 6.98379 264.147 9.47481C259.931 11.9658 254.375 15.2233 251.692 16.6605C249.105 18.0976 241.919 22.2174 235.883 25.7623C229.847 29.3072 222.758 33.427 220.171 34.8641C216.722 36.7803 215.093 38.5048 213.752 41.6665C211.931 45.5947 211.835 47.9899 212.123 81.5229C212.41 111.128 212.698 117.739 213.847 120.134C215.285 123.008 220.075 126.17 244.027 139.775C249.871 143.128 258.494 148.014 263.189 150.793C275.261 157.882 281.488 160.852 283.884 160.852C286.087 160.852 294.039 156.828 308.985 148.11C330.159 135.655 336.195 132.206 340.794 129.715C350.279 124.541 352.099 123.104 353.345 120.038C355.069 116.014 355.357 46.0737 353.632 41.2833C352.77 38.8881 350.087 36.8761 337.632 29.4988C329.393 24.7084 317.417 17.6185 311.093 13.882C284.65 -1.63899 283.788 -1.92641 276.123 2.38498ZM291.74 16.5646C293.943 17.8102 297.967 20.1096 300.65 21.6425C326.614 36.2054 336.387 42.1455 339.548 45.1156L343.189 48.7563V80.2774V111.798L340.794 114.673C338.686 117.164 331.117 122.05 317.321 129.523C314.447 131.152 308.315 134.697 303.62 137.571C291.165 145.044 288.099 146.481 283.788 146.481C279.189 146.481 278.231 146.098 258.686 134.409C250.351 129.427 243.357 125.403 243.069 125.403C242.877 125.403 239.333 123.391 235.309 120.996C223.907 114.002 224.386 115.822 224.386 80.2774C224.386 50.4809 224.386 49.906 226.59 46.8402C227.931 44.8282 233.009 41.2833 241.632 36.3012C248.722 32.2773 260.219 25.6665 267.021 21.6425C281.393 13.3072 284.842 12.5407 291.74 16.5646Z" fill="#FCFCFC"/>
<path d="M280.914 20.3012C279.572 20.9719 273.632 24.421 267.692 27.9659C261.752 31.5108 256.77 34.3851 256.578 34.3851C255.812 34.3851 233.392 47.7983 231.86 49.1396C230.327 50.5767 230.135 53.2594 230.135 80.3732C230.135 113.906 229.656 111.703 237.991 115.918C242.111 118.026 250.446 122.721 271.524 135.08C277.656 138.721 283.213 141.691 283.788 141.691C284.458 141.691 290.59 138.337 297.584 134.218C304.482 130.098 316.075 123.295 323.261 119.08L336.483 111.511V80.3732V49.2354L333.8 47.7025C332.363 46.8402 323.932 41.954 314.926 36.7803C288.195 21.2593 284.363 19.0557 283.788 19.0557C283.5 19.0557 282.255 19.6306 280.914 20.3012ZM290.686 27.2953C294.039 29.3072 300.65 33.0438 305.345 35.8222C310.135 38.6007 316.554 42.2414 319.716 43.966C322.878 45.6905 327.093 48.1815 329.105 49.427L332.65 51.6306L332.459 80.5648L332.171 109.499L321.632 115.727C301.225 127.607 290.973 133.547 287.333 135.463L283.788 137.379L277.752 134.026C274.494 132.301 268.171 128.565 263.668 125.882C259.165 123.2 252.554 119.272 248.818 117.26C245.177 115.248 240.482 112.565 238.566 111.319L234.925 109.116V80.2774V51.5348L237.895 49.9061C240.578 48.469 257.824 38.4091 275.644 27.9659C279.381 25.7623 282.83 24.0378 283.5 23.942C284.075 23.8461 287.333 25.3791 290.686 27.2953Z" fill="#FCFCFC"/>
<path d="M263.668 67.9181V72.7085H270.854H277.943L278.231 84.8762L278.518 97.1397H283.788H289.057L289.345 84.8762L289.632 72.7085H296.722H303.908V67.9181V63.1277H283.788H263.668V67.9181Z" fill="#FCFCFC"/>
<path d="M136.123 2.38498C133.728 3.8221 128.363 6.98379 124.147 9.47481C119.931 11.9658 114.375 15.2233 111.692 16.6605C109.105 18.0976 101.919 22.2174 95.8834 25.7623C89.8475 29.3072 82.7577 33.427 80.1708 34.8641C76.7217 36.7803 75.093 38.5048 73.7517 41.6665C71.9313 45.5947 71.8355 47.9899 72.1229 81.5229C72.4103 111.128 72.6978 117.739 73.8475 120.134C75.2846 123.008 80.075 126.17 104.027 139.775C109.871 143.128 118.494 148.014 123.189 150.793C135.261 157.882 141.488 160.852 143.884 160.852C146.087 160.852 154.039 156.828 168.985 148.11C190.159 135.655 196.195 132.206 200.794 129.715C210.279 124.541 212.099 123.104 213.345 120.038C215.069 116.014 215.357 46.0737 213.632 41.2833C212.77 38.8881 210.087 36.8761 197.632 29.4988C189.393 24.7084 177.417 17.6185 171.093 13.882C144.65 -1.63899 143.788 -1.92641 136.123 2.38498ZM151.74 16.5646C153.943 17.8102 157.967 20.1096 160.65 21.6425C186.614 36.2054 196.387 42.1455 199.548 45.1156L203.189 48.7563V80.2774V111.798L200.794 114.673C198.686 117.164 191.117 122.05 177.321 129.523C174.447 131.152 168.315 134.697 163.62 137.571C151.165 145.044 148.099 146.481 143.788 146.481C139.189 146.481 138.231 146.098 118.686 134.409C110.351 129.427 103.357 125.403 103.069 125.403C102.877 125.403 99.3325 123.391 95.3086 120.996C83.9074 114.002 84.3864 115.822 84.3864 80.2774C84.3864 50.4809 84.3864 49.906 86.59 46.8402C87.9313 44.8282 93.0092 41.2833 101.632 36.3012C108.722 32.2773 120.219 25.6665 127.021 21.6425C141.393 13.3072 144.842 12.5407 151.74 16.5646Z" fill="#FCFCFC"/>
<path d="M140.914 20.3012C139.572 20.9719 133.632 24.421 127.692 27.9659C121.752 31.5108 116.77 34.3851 116.578 34.3851C115.812 34.3851 93.3925 47.7983 91.8595 49.1396C90.3266 50.5767 90.135 53.2594 90.135 80.3732C90.135 113.906 89.6559 111.703 97.9913 115.918C102.111 118.026 110.446 122.721 131.524 135.08C137.656 138.721 143.213 141.691 143.788 141.691C144.458 141.691 150.59 138.337 157.584 134.218C164.482 130.098 176.075 123.295 183.261 119.08L196.483 111.511V80.3732V49.2354L193.8 47.7025C192.363 46.8402 183.932 41.954 174.926 36.7803C148.195 21.2593 144.363 19.0557 143.788 19.0557C143.5 19.0557 142.255 19.6306 140.914 20.3012ZM150.686 27.2953C154.039 29.3072 160.65 33.0438 165.345 35.8222C170.135 38.6007 176.554 42.2414 179.716 43.966C182.878 45.6905 187.093 48.1815 189.105 49.427L192.65 51.6306L192.459 80.5648L192.171 109.499L181.632 115.727C161.225 127.607 150.973 133.547 147.333 135.463L143.788 137.379L137.752 134.026C134.494 132.301 128.171 128.565 123.668 125.882C119.165 123.2 112.554 119.272 108.818 117.26C105.177 115.248 100.482 112.565 98.5661 111.319L94.9254 109.116V80.2774V51.5348L97.8955 49.9061C100.578 48.469 117.824 38.4091 135.644 27.9659C139.381 25.7623 142.83 24.0378 143.5 23.942C144.075 23.8461 147.333 25.3791 150.686 27.2953Z" fill="#FCFCFC"/>
<path d="M123.668 67.9181V72.7085H130.854H137.943L138.231 84.8762L138.518 97.1397H143.788H149.057L149.345 84.8762L149.632 72.7085H156.722H163.908V67.9181V63.1277H143.788H123.668V67.9181Z" fill="#FCFCFC"/>
<path d="M206.123 369.385C203.728 370.822 198.363 373.984 194.147 376.475C189.931 378.966 184.375 382.223 181.692 383.66C179.105 385.098 171.919 389.217 165.883 392.762C159.847 396.307 152.758 400.427 150.171 401.864C146.722 403.78 145.093 405.505 143.752 408.667C141.931 412.595 141.835 414.99 142.123 448.523C142.41 478.128 142.698 484.739 143.847 487.134C145.285 490.008 150.075 493.17 174.027 506.775C179.871 510.128 188.494 515.014 193.189 517.793C205.261 524.882 211.488 527.852 213.884 527.852C216.087 527.852 224.039 523.828 238.985 515.11C260.159 502.655 266.195 499.206 270.794 496.715C280.279 491.541 282.099 490.104 283.345 487.038C285.069 483.014 285.357 413.074 283.632 408.283C282.77 405.888 280.087 403.876 267.632 396.499C259.393 391.708 247.417 384.619 241.093 380.882C214.65 365.361 213.788 365.074 206.123 369.385ZM221.74 383.565C223.943 384.81 227.967 387.11 230.65 388.643C256.614 403.205 266.387 409.146 269.548 412.116L273.189 415.756V447.277V478.798L270.794 481.673C268.686 484.164 261.117 489.05 247.321 496.523C244.447 498.152 238.315 501.697 233.62 504.571C221.165 512.044 218.099 513.481 213.788 513.481C209.189 513.481 208.231 513.098 188.686 501.409C180.351 496.427 173.357 492.403 173.069 492.403C172.877 492.403 169.333 490.391 165.309 487.996C153.907 481.002 154.386 482.822 154.386 447.277C154.386 417.481 154.386 416.906 156.59 413.84C157.931 411.828 163.009 408.283 171.632 403.301C178.722 399.277 190.219 392.666 197.021 388.643C211.393 380.307 214.842 379.541 221.74 383.565Z" fill="#FCFCFC"/>
<path d="M210.914 387.301C209.572 387.972 203.632 391.421 197.692 394.966C191.752 398.511 186.77 401.385 186.578 401.385C185.812 401.385 163.392 414.798 161.86 416.14C160.327 417.577 160.135 420.259 160.135 447.373C160.135 480.906 159.656 478.703 167.991 482.918C172.111 485.026 180.446 489.721 201.524 502.08C207.656 505.721 213.213 508.691 213.788 508.691C214.458 508.691 220.59 505.337 227.584 501.218C234.482 497.098 246.075 490.295 253.261 486.08L266.483 478.511V447.373V416.235L263.8 414.702C262.363 413.84 253.932 408.954 244.926 403.78C218.195 388.259 214.363 386.056 213.788 386.056C213.5 386.056 212.255 386.631 210.914 387.301ZM220.686 394.295C224.039 396.307 230.65 400.044 235.345 402.822C240.135 405.601 246.554 409.241 249.716 410.966C252.878 412.69 257.093 415.181 259.105 416.427L262.65 418.631L262.459 447.565L262.171 476.499L251.632 482.727C231.225 494.607 220.973 500.547 217.333 502.463L213.788 504.379L207.752 501.026C204.494 499.301 198.171 495.565 193.668 492.882C189.165 490.2 182.554 486.271 178.818 484.259C175.177 482.247 170.482 479.565 168.566 478.319L164.925 476.116V447.277V418.535L167.895 416.906C170.578 415.469 187.824 405.409 205.644 394.966C209.381 392.762 212.83 391.038 213.5 390.942C214.075 390.846 217.333 392.379 220.686 394.295Z" fill="#FCFCFC"/>
<path d="M193.668 434.918V439.709H200.854H207.943L208.231 451.876L208.518 464.14H213.788H219.057L219.345 451.876L219.632 439.709H226.722H233.908V434.918V430.128H213.788H193.668V434.918Z" fill="#FCFCFC"/>
<path d="M64.1231 369.385C61.7278 370.822 56.3626 373.984 52.147 376.475C47.9314 378.966 42.3745 382.223 39.6919 383.66C37.105 385.098 29.9194 389.217 23.8834 392.762C17.8475 396.307 10.7577 400.427 8.17083 401.864C4.72172 403.78 3.09297 405.505 1.75165 408.667C-0.0687135 412.595 -0.164522 414.99 0.122904 448.523C0.41033 478.128 0.697755 484.739 1.84746 487.134C3.28459 490.008 8.07502 493.17 32.0272 506.775C37.8715 510.128 46.4943 515.014 51.1889 517.793C63.2608 524.882 69.4883 527.852 71.8836 527.852C74.0871 527.852 82.0393 523.828 96.9854 515.11C118.159 502.655 124.195 499.206 128.794 496.715C138.279 491.541 140.099 490.104 141.345 487.038C143.069 483.014 143.357 413.074 141.632 408.283C140.77 405.888 138.087 403.876 125.632 396.499C117.393 391.708 105.417 384.619 99.0932 380.882C72.65 365.361 71.7877 365.074 64.1231 369.385ZM79.7399 383.565C81.9435 384.81 85.9674 387.11 88.6501 388.643C114.614 403.205 124.387 409.146 127.548 412.116L131.189 415.756V447.277V478.798L128.794 481.673C126.686 484.164 119.117 489.05 105.321 496.523C102.447 498.152 96.3147 501.697 91.6201 504.571C79.165 512.044 76.0991 513.481 71.7877 513.481C67.1889 513.481 66.2308 513.098 46.6859 501.409C38.3505 496.427 31.3565 492.403 31.0691 492.403C30.8775 492.403 27.3325 490.391 23.3086 487.996C11.9074 481.002 12.3864 482.822 12.3864 447.277C12.3864 417.481 12.3864 416.906 14.59 413.84C15.9313 411.828 21.0092 408.283 29.632 403.301C36.7218 399.277 48.2188 392.666 55.0212 388.643C69.3925 380.307 72.8416 379.541 79.7399 383.565Z" fill="#FCFCFC"/>
<path d="M68.9135 387.301C67.5722 387.972 61.6321 391.421 55.6919 394.966C49.7518 398.511 44.7698 401.385 44.5781 401.385C43.8117 401.385 21.3925 414.798 19.8595 416.14C18.3266 417.577 18.135 420.259 18.135 447.373C18.135 480.906 17.6559 478.703 25.9913 482.918C30.111 485.026 38.4464 489.721 59.5243 502.08C65.656 505.721 71.2129 508.691 71.7878 508.691C72.4585 508.691 78.5902 505.337 85.5842 501.218C92.4825 497.098 104.075 490.295 111.261 486.08L124.483 478.511V447.373V416.235L121.8 414.702C120.363 413.84 111.932 408.954 102.926 403.78C76.195 388.259 72.3626 386.056 71.7878 386.056C71.5004 386.056 70.2549 386.631 68.9135 387.301ZM78.686 394.295C82.0393 396.307 88.6501 400.044 93.3447 402.822C98.1352 405.601 104.554 409.241 107.716 410.966C110.878 412.69 115.093 415.181 117.105 416.427L120.65 418.631L120.459 447.565L120.171 476.499L109.632 482.727C89.225 494.607 78.9734 500.547 75.3327 502.463L71.7878 504.379L65.7518 501.026C62.4944 499.301 56.171 495.565 51.668 492.882C47.165 490.2 40.5542 486.271 36.8177 484.259C33.1769 482.247 28.4823 479.565 26.5661 478.319L22.9254 476.116V447.277V418.535L25.8955 416.906C28.5781 415.469 45.8237 405.409 63.6441 394.966C67.3806 392.762 70.8297 391.038 71.5004 390.942C72.0752 390.846 75.3327 392.379 78.686 394.295Z" fill="#FCFCFC"/>
<path d="M51.668 434.918V439.709H58.8536H65.9435L66.2309 451.876L66.5183 464.14H71.7878H77.0572L77.3447 451.876L77.6321 439.709H84.7219H91.9076V434.918V430.128H71.7878H51.668V434.918Z" fill="#FCFCFC"/>
</svg>
